# Blender v2.82 (sub 7) OBJ File: 'ButterflyWing.blend'
# www.blender.org
mtllib ButterflyWing.mtl
o Plane
v -0.003380 0.000298 0.059430
v 0.105086 0.004095 0.130602
v -0.004691 0.001815 -0.049192
v 0.089973 0.011656 -0.095920
v -0.004085 0.001554 0.004244
v 0.167439 0.007692 0.017607
v 0.098199 -0.007884 -0.015206
v 0.160151 0.000962 -0.074540
v 0.196456 -0.004276 0.089472
vt 0.000000 0.945869
vt 0.999999 0.945871
vt 1.000000 1.000000
vt 0.000000 1.000000
vt 0.000000 0.248624
vt 1.000000 0.248624
vt 1.000000 0.497248
vt 0.000000 0.497248
vt 1.000000 0.857564
vt 0.000000 0.891726
vt 0.000000 0.000000
vt 1.000000 0.000000
vn 0.0240 0.9922 0.1226
vn -0.0494 0.9818 0.1835
vn 0.0013 0.9023 -0.4310
vn 0.1424 0.9464 0.2898
vn 0.0297 0.9985 -0.0458
usemtl None
s off
f 5/1/1 8/2/1 4/3/1 3/4/1
f 5/5/2 9/6/2 6/7/2
f 5/8/3 6/7/3 7/9/3
f 5/10/4 7/9/4 8/2/4
f 1/11/5 2/12/5 9/6/5 5/5/5
